<svg xmlns="http://www.w3.org/2000/svg" height="16" width="14" viewBox="0 0 448 512"><!--!Font Awesome Free 6.5.1 by @fontawesome - https://fontawesome.com License - https://fontawesome.com/license/free Copyright 2023 Fonticons, Inc.--><g transform="translate(22.4 25.6)"><rect width="448" height="512" fill="#e56d0b"/><path fill="#ffffff" d="M96 136c0-13.3 10.7-24 24-24c137 0 248 111 248 248c0 13.3-10.7 24-24 24s-24-10.7-24-24c0-110.5-89.5-200-200-200c-13.3 0-24-10.7-24-24zm0 96c0-13.3 10.7-24 24-24c83.9 0 152 68.1 152 152c0 13.3-10.7 24-24 24s-24-10.7-24-24c0-57.4-46.6-104-104-104c-13.3 0-24-10.7-24-24zm0 120a32 32 0 1 1 64 0 32 32 0 1 1 -64 0z"/></g></svg>
